<svg width="400" height="153" viewBox="0 0 400 153" fill="none" xmlns="http://www.w3.org/2000/svg">
<g clip-path="url(#clip0_52_578)">
<path d="M324.141 16.6516C324.141 25.8385 306.649 33.2895 285.071 33.2895C263.493 33.2895 246 25.8385 246 16.6516C246 7.46475 263.479 0 285.071 0C306.662 0 324.141 7.45103 324.141 16.6516Z" fill="#4B4B4B"/>
<path d="M246 44.8228C246 54.0165 263.479 61.4675 285.071 61.4675C306.662 61.4675 324.141 54.0165 324.141 44.8159V40.6993C324.143 40.072 323.99 39.454 323.694 38.901C323.398 38.348 322.969 37.8774 322.446 37.5316C321.923 37.1858 321.323 36.9757 320.698 36.9203C320.074 36.8648 319.446 36.9657 318.87 37.2139C318.87 37.2139 306.649 44.761 285.077 44.761C263.506 44.761 251.285 37.2139 251.285 37.2139C250.709 36.9611 250.08 36.8564 249.453 36.9092C248.827 36.962 248.224 37.1708 247.699 37.5165C247.173 37.8622 246.743 38.3338 246.446 38.8885C246.15 39.4432 245.996 40.0633 246 40.6925V44.8091V44.8228Z" fill="#4B4B4B"/>
<path d="M297.676 72.9735C294.466 78.3937 292.108 84.2761 290.684 90.4141C288.834 90.5308 286.969 90.5857 285.05 90.5857C263.493 90.5857 245.979 83.1278 245.979 73.9272V69.8106C245.977 69.1844 246.13 68.5675 246.425 68.0152C246.719 67.4629 247.147 66.9925 247.668 66.6463C248.189 66.3 248.788 66.0888 249.411 66.0316C250.034 65.9743 250.661 66.0729 251.237 66.3184C251.237 66.3184 263.465 73.8654 285.03 73.8654C289.261 73.8797 293.488 73.5816 297.676 72.9735Z" fill="#4B4B4B"/>
<path d="M290.726 119.518C288.882 119.635 286.969 119.69 285.05 119.69C263.493 119.69 245.979 112.232 245.979 103.052V98.9354C245.975 98.3086 246.126 97.6905 246.421 97.1371C246.715 96.5838 247.142 96.1127 247.664 95.7666C248.187 95.4205 248.787 95.2102 249.411 95.1549C250.034 95.0997 250.662 95.2011 251.237 95.45C251.237 95.45 263.465 102.997 285.029 102.997C286.4 102.997 287.716 102.997 289.012 102.922C288.971 103.608 288.971 104.218 288.971 104.87C288.971 109.805 289.56 114.723 290.726 119.518Z" fill="#4B4B4B"/>
<path d="M304.757 146.503C298.314 148.078 291.702 148.85 285.071 148.801C263.513 148.801 246 141.35 246 132.163V128.047C245.995 127.42 246.147 126.802 246.441 126.248C246.735 125.695 247.163 125.224 247.685 124.878C248.207 124.532 248.807 124.321 249.431 124.266C250.055 124.211 250.683 124.312 251.257 124.561C251.257 124.561 263.486 132.108 285.05 132.108C288.346 132.115 291.639 131.929 294.914 131.553C297.462 136.982 300.777 142.017 304.757 146.503Z" fill="#4B4B4B"/>
<path d="M356.357 88.4381H344.917V105.851H356.357C361.841 105.851 365.604 102.695 365.604 97.179C365.604 91.6628 361.841 88.4381 356.357 88.4381Z" fill="#4B4B4B"/>
<path d="M351.902 56.7129C342.389 56.7129 333.09 59.5365 325.18 64.8265C317.27 70.1166 311.106 77.6356 307.465 86.4327C303.825 95.2298 302.872 104.91 304.728 114.249C306.584 123.588 311.165 132.166 317.892 138.899C324.618 145.632 333.188 150.217 342.519 152.075C351.849 153.933 361.52 152.979 370.308 149.335C379.097 145.691 386.609 139.521 391.894 131.604C397.179 123.686 400 114.378 400 104.856C399.998 92.0885 394.93 79.8441 385.91 70.8158C376.891 61.7875 364.658 56.7147 351.902 56.7129ZM356.81 113.055H344.917V133.638H336.993V81.3095H356.81C367.009 81.3095 373.548 88.0676 373.548 97.179C373.548 106.29 367.009 113.048 356.81 113.048V113.055Z" fill="#4B4B4B"/>
</g>
<rect y="33" width="234" height="93" rx="46.5" fill="url(#paint0_linear_52_578)"/>
<path d="M191.061 106.415C189.4 108.275 186.743 110.732 184.683 110.732C181.229 110.732 177.841 107.079 175.184 99.8381C170.733 104.887 165.286 108.939 158.976 111.596V105.086C164.821 102.495 169.604 98.6424 173.457 93.8596C171.663 86.4196 170.468 76.5217 170.136 64.166H146.155V58.586H169.936V50.0831H175.583V58.586H185.348L182.491 50.216H187.473L190.728 59.981H188.802V64.166H175.649C175.782 73.7981 176.513 81.6367 177.642 87.6817C180.764 82.301 183.023 76.1231 184.683 69.1481H189.798C187.673 78.7138 184.152 87.416 179.236 94.6567C181.096 101.167 183.222 104.222 184.883 104.222C186.411 104.222 188.669 101.632 191.061 98.576V106.415ZM167.412 89.4753H148.613V69.1481H167.412V89.4753ZM147.085 98.576C142.767 101.3 135.593 104.422 129.614 106.282V100.502C131.806 99.7717 134.131 98.9081 136.39 97.9117V71.7388H129.681V66.4246H136.39V50.681H141.771V66.4246H146.553V71.7388H141.771V92.531L141.638 95.5203C143.564 94.5903 145.424 93.7267 147.085 92.7303V98.576ZM170.335 96.9817C163.626 100.037 151.602 104.355 145.823 105.883V99.971C150.871 98.7753 163.227 94.5238 170.335 91.4017V96.9817ZM163.227 84.6924V74.1967H152.864V84.6924H163.227Z" fill="white"/>
<path d="M103.176 102.761C103.176 108.274 100.186 110.134 95.2705 110.134H70.9577C67.6362 110.134 65.9091 108.407 65.9091 104.82V73.5323L59.7977 74.9938V71.6723H54.8819V91.9331L54.7491 95.3873C57.4062 94.3245 59.7977 93.1952 61.7241 92.0659V98.0445C57.0741 100.702 47.9734 104.222 41.9948 105.817V100.037C44.1205 99.4395 46.7777 98.5095 49.5677 97.5131V71.6723H42.1277V66.3581H49.5677V50.4816H54.8819V66.3581H60.9934V68.8159L65.9091 67.6202V54.9988H71.2234V66.4245L80.4569 64.1659V50.2823H85.7712V62.9038L101.714 59.0509V74.5952C101.714 88.9438 100.585 92.1323 94.6727 92.1323H89.2255V86.5523H93.0784C95.9348 86.5523 96.3334 85.7552 96.3334 74.8609V66.2916L85.7048 68.7495V98.1773H80.4569V70.0116L71.2234 72.2702V102.96C71.2234 104.156 71.6884 104.621 72.9505 104.621H93.6762C96.3998 104.621 97.6619 104.222 97.6619 101.499V94.3909H103.176V102.761Z" fill="white"/>
<defs>
<linearGradient id="paint0_linear_52_578" x1="57.2938" y1="48.0974" x2="193.079" y2="125.844" gradientUnits="userSpaceOnUse">
<stop stop-color="#009FE6"/>
<stop offset="1" stop-color="#40C046"/>
</linearGradient>
<clipPath id="clip0_52_578">
<rect width="154" height="153" fill="white" transform="translate(246)"/>
</clipPath>
</defs>
</svg>
