<svg xmlns="http://www.w3.org/2000/svg" xmlns:xlink="http://www.w3.org/1999/xlink" viewBox="0 0 325.57 325.57"><defs><style>.cls-1{isolation:isolate;}.cls-2{fill:url(#新規グラデーションスウォッチ_コ);}.cls-3{fill:url(#新規グラデーションスウォッチ_コ-2);}.cls-4{fill:url(#新規グラデーションスウォッチ_コ-3);}.cls-5{fill:#fff;}.cls-6{fill:#f5e929;}.cls-7{fill:#bbd47f;}.cls-8{fill:#16a4a1;}.cls-9{fill:#eb6ea5;}.cls-10{fill:#f7f08e;}.cls-11{fill:#eeaeae;}.cls-12{fill:#21aede;}.cls-13{fill:#b8def3;}.cls-14{fill:#b275a9;}.cls-15{fill:#ea9313;}.cls-16{fill:#bd782f;}.cls-17{fill:#ffe67a;}.cls-18{fill:#e60012;}.cls-19{fill:#f39800;}.cls-20{fill:#fff100;}.cls-21{fill:none;stroke:#5d1a1f;stroke-linecap:round;stroke-linejoin:round;stroke-width:1.06px;}.cls-22{fill:#231815;}.cls-23{opacity:0.3;mix-blend-mode:soft-light;fill:url(#新規グラデーションスウォッチ_5);}</style><linearGradient id="新規グラデーションスウォッチ_コ" x1="7568.97" y1="1616.51" x2="7568.97" y2="1290.94" gradientTransform="translate(7731.76 1616.51) rotate(180)" gradientUnits="userSpaceOnUse"><stop offset="0" stop-color="#fed400"/><stop offset="1" stop-color="#d59b00"/></linearGradient><linearGradient id="新規グラデーションスウォッチ_コ-2" x1="162.78" y1="312.08" x2="162.78" y2="13.5" gradientTransform="translate(0 0)" xlink:href="#新規グラデーションスウォッチ_コ"/><linearGradient id="新規グラデーションスウォッチ_コ-3" x1="7568.97" y1="1595.47" x2="7568.97" y2="1311.98" gradientTransform="translate(7731.75 1616.51) rotate(180)" xlink:href="#新規グラデーションスウォッチ_コ"/><linearGradient id="新規グラデーションスウォッチ_5" x1="7568.97" y1="1612.76" x2="7568.97" y2="1454.43" gradientTransform="translate(7731.75 1616.51) rotate(180)" gradientUnits="userSpaceOnUse"><stop offset="0" stop-color="#dfdfdf"/><stop offset="0.98" stop-color="#b6b6b6"/></linearGradient></defs><title>アセット 1</title><g class="cls-1"><g id="レイヤー_2" data-name="レイヤー 2"><g id="レイヤー_1-2" data-name="レイヤー 1"><circle class="cls-2" cx="162.79" cy="162.79" r="162.79"/><circle class="cls-3" cx="162.78" cy="162.79" r="149.29"/><circle class="cls-4" cx="162.78" cy="162.79" r="141.74"/><path class="cls-5" d="M79.7,270.15c-21.17-5-21.18-5-2.7-16.5-18.48,11.46-18.54,11.41-13.58-9.76-5,21.17-5,21.18-16.5,2.7,11.46,18.48,11.41,18.55-9.76,13.58,21.17,5,21.18,5,2.7,16.5,18.48-11.46,18.54-11.41,13.58,9.76,5-21.17,5-21.18,16.5-2.7C58.48,265.25,58.53,265.19,79.7,270.15Z"/><path class="cls-6" d="M145.16,93.12s-3.92-13.5-6.32-35.47l-9.34,1.84s8,22.25,10.64,35.59Z"/><polygon class="cls-6" points="137.15 50.5 125.95 53.4 122.29 44.7 134.25 39.29 137.15 50.5"/><path class="cls-6" d="M181.67,94.25S188.09,68,190.8,57.94l7.87,2.15S189,86.29,184.92,97.2Z"/><polygon class="cls-6" points="201.19 54.85 192.85 51.03 195.49 38.67 205.79 42.38 201.19 54.85"/><path class="cls-6" d="M120.9,106s-19-19.18-26.17-26.77l6-5.58S118,95.61,125.11,104.81Z"/><polygon class="cls-6" points="97.53 68.8 89.91 73.91 80.75 65.19 89.31 58.35 97.53 68.8"/><path class="cls-6" d="M98.77,178.61S85,181.42,62.9,182L64,191.48s22.83-6.16,36.34-7.7Z"/><polygon class="cls-6" points="55.63 183.12 57.62 194.53 48.65 197.47 44.23 185.11 55.63 183.12"/><path class="cls-6" d="M90.81,135.56s-24.54-11.24-33.94-15.81l3.6-7.33s23.91,14.42,33.85,20.5Z"/><polygon class="cls-6" points="55.79 108.97 50.47 116.44 38.83 111.52 44.41 102.1 55.79 108.97"/><path class="cls-6" d="M112.06,209.11s-20.91,17.08-29.14,23.5l-5-6.46S101.4,211,111.23,204.8Z"/><polygon class="cls-6" points="72.76 228.82 77.12 236.9 67.57 245.19 61.58 236.02 72.76 228.82"/><path class="cls-6" d="M211.29,220.36s11.39,8.24,26.8,24.09l6.23-7.2s-20-12.63-30.28-21.52Z"/><polygon class="cls-6" points="243.82 249.05 250.87 239.86 259.1 244.47 253 256.1 243.82 249.05"/><path class="cls-6" d="M142.72,214.51S131,238.85,126.31,248.16l-7.26-3.73s14.84-23.65,21.1-33.47Z"/><polygon class="cls-6" points="115.51 249.04 122.89 254.5 117.76 266.06 108.44 260.3 115.51 249.04"/><path class="cls-6" d="M240.28,142.32s12.74-5.93,34.1-11.66l-3.25-8.94s-20.77,11.3-33.55,15.94Z"/><polygon class="cls-6" points="281.19 127.9 276.6 117.27 284.64 112.33 291.81 123.32 281.19 127.9"/><path class="cls-6" d="M232.7,187s26.93,1.91,37.32,2.89l-.79,8.12s-27.45-5.11-38.89-7.32Z"/><polygon class="cls-6" points="274.82 199.59 277.19 190.73 289.82 191.25 287.89 202.03 274.82 199.59"/><path class="cls-6" d="M218.74,106.09s10-16.34,16.21-24.76l6.56,4.86s-13,15.15-20.81,23.83Z"/><polygon class="cls-6" points="245.75 82.21 239.36 75.62 246.29 65.05 254.55 72.24 245.75 82.21"/><path class="cls-7" d="M274,201.93c6.38-4.21,12-1.49,13.58,2.85s3.94,3.12,3.94,3.12-2.17,5.3-5.71,1.49-9.24-4.08-10.46-2.17Z"/><polygon class="cls-7" points="274.59 201.8 281.22 217.51 277.69 217.6 274.02 201.93 274.59 201.8"/><path class="cls-7" d="M283.43,218.48c-1.59-6-14.51-2.65-13.27,3.36s14.86,2.65,13.27-3.36"/><path class="cls-8" d="M121.91,85.88c1-2.79-6.57-5.09-7.55-1.64s6.57,4.43,7.55,1.64"/><path class="cls-8" d="M129.46,91.3c1-2.79-6.57-5.09-7.55-1.64s6.57,4.43,7.55,1.64"/><polygon class="cls-8" points="120.76 85.39 125.19 80.14 130.94 82.44 126.18 89.99 128.15 90.97 134.88 79.98 127 75.87 119.12 84.24 120.76 85.39"/><path class="cls-9" d="M88.1,151.14C86.53,144,75,144,71.52,146.21c2.71-7.56.9-16.51-6.79-16.65S51.36,136,50.91,143.23c-6.5-2.84-17.06-2.52-18.9,6.08-1.74,8.18,7.21,13.41,13.56,13-6.92,4-13.82,12.57-6,19.41,6.92,6.07,16.29.52,19.16-6.82,2.76,7.67,9.7,9.85,16.4,7.13,8.22-3.33,5-13.47-1.12-18.82,7.62,1.57,15.68-4.93,14.11-12.1"/><path class="cls-10" d="M55.49,161.64c5.13,4.33,11.88-3.63,7-8s-12.3,3.57-7,8"/><path class="cls-11" d="M250.12,230c4.24-.72,4.55-7.46,3.35-9.56,4.35,1.8,9.64,1,9.93-3.51s-3.37-8-7.61-8.47c1.85-3.72,2-9.91-3-11.22-4.73-1.25-8,3.85-8,7.57-2.14-4.16-7-8.44-11.19-4.06-3.74,3.88-.76,9.51,3.45,11.39-4.56,1.4-6,5.4-4.63,9.39,1.72,4.9,7.74,3.32,11-.13-1.13,4.41,2.45,9.31,6.68,8.59"/><path class="cls-10" d="M244.89,210.63c-2.68,2.88,1.79,7.05,4.51,4.32s-1.75-7.29-4.51-4.32"/><path class="cls-12" d="M289.81,165.72c-1.67-5.36-6.53-5.85-11.39-4.69,2.58-7.29-2.66-12.14-10.39-11.72-7,.38-9.24,3.63-9.72,9.53-4.76-4.19-9.91-4.1-13.73,2.52-3.48,6,.56,8.92,6,12.06-6,5.36-5.52,11.05-.33,14.74,5.74,4.08,11.89,4.76,16.41-.17,2.22,5.86,7.95,7.52,14.41,3.52,6.74-4.18,5.25-9.38.24-14.13,7.53.11,10.14-6.31,8.47-11.67"/><path class="cls-13" d="M262,168.23A6.44,6.44,0,0,1,274,171.56c0,4.45-4.78,7.67-9,6.44-3.7-1.08-4.77-6.78-2.95-9.77"/><path class="cls-13" d="M173.53,55.67c-4.27-1.24-6.72,1.74-8.09,5.46-3.67-4.89-9.17-3.57-12.29,1.71-2.84,4.81-1.66,7.69,2,10.59-4.85,1.3-7.05,4.74-4.35,10.17,2.46,4.95,6.13,3.54,10.6,1.31.89,6.33,4.87,8.49,9.58,6.68,5.21-2,8.35-5.76,7.08-10.9,4.83,1.1,8.45-2,8.63-8,.19-6.28-3.89-7.57-9.21-6.35,3.37-4.92.28-9.46-4-10.7"/><path class="cls-10" d="M160.84,76.07a7.41,7.41,0,0,1,10.8-9.32c4.28,2.82,4.31,9.47.46,12.72-3.4,2.86-9.54.26-11.25-3.39"/><path class="cls-14" d="M92.75,209.67a24,24,0,0,0-6.1-3.77c3.88-2.35,11.1-11.54,4.24-14.83-5.45-2.61-14.42,1.46-15.39,7.49-3.71-5-12.8-10.87-17-2.87-3.28,6.28,1.36,14,8,15.26-4,3.35-9.86,13.26-1.77,15.64,6.79,2,13.25-4.51,13.72-10.92,2.71,4.47,7.87,8.1,13.24,5.94,5.82-2.34,5.3-8.24,1-11.94"/><polygon class="cls-11" points="74.64 202.89 71.06 209.15 77.47 213.62 81.35 205.57 74.64 202.89"/><path class="cls-15" d="M205.27,79.66a15.39,15.39,0,0,0,.58,4.58c-2.75-1-10.29-.9-9.16,3.88.9,3.79,6.57,6.64,10,4.69-1,3.88-.27,10.82,5.43,9.68,4.48-.89,6.49-6.36,4.42-10.19,3.31.67,10.64-.42,8.57-5.44-1.74-4.22-7.63-4.83-11-2.47,1.15-3.17.88-7.23-2.38-9-3.53-2-6.28.68-6.41,4.31"/><polygon class="cls-10" points="209.2 91.49 213.79 90.75 213.45 85.73 207.83 87.03 209.2 91.49"/><path class="cls-16" d="M207.38,121.22s31.16-35.29,72.73-1.11c0,0-26.85,50.72-69.17,19.79"/><path class="cls-17" d="M209.35,130.35s21.67-22.1,52.78-7.75c0,0-17.79,30.7-52.78,7.75"/><polyline class="cls-16" points="216.12 123.5 232.21 123.53 224.94 129.48 231.3 132.23 224.61 136.52"/><path class="cls-16" d="M130.29,114.91s-23.41-40.81-71-15.71c0,0,16.09,55.07,63.75,33.3"/><path class="cls-17" d="M126.52,123.46s-16.79-26-50.14-18.21c0,0,11.25,33.64,50.14,18.21"/><polyline class="cls-16" points="121.28 115.38 105.51 112.19 111.42 119.48 104.64 120.88 110.33 126.44"/><path class="cls-16" d="M228.63,163c-.11-2.24-.29-4.43-.51-6.55-1.45,19.18-10.58,34.39-19.12,35.63-27.29,3.95-37.57-21.82-37.57-21.82,1.32-22.34,16-53.48,30.62-59.92-9.17-5.33-20.91-8.48-35.74-9.1-13.72-.57-25.21,1.45-34.69,5.73,14.48,6.62,27.07,39.83,26.5,62.72,0,0-15,31.73-39.25,18.65-10.76-5.83-20.35-28.78-14.08-53.46a87.23,87.23,0,0,0-6.24,22.71c-6,41.89,13.93,65.33,62.06,67.34,47.3,2,70.15-19.68,68-61.92"/><path class="cls-17" d="M171.42,170.24S181.7,196,209,192.06c8.55-1.24,17.67-16.45,19.12-35.63-2.26-21.22-10.31-37-26.08-46.12-14.65,6.44-29.3,37.58-30.62,59.93"/><path class="cls-17" d="M118.87,188.32c24.28,13.08,39.24-18.65,39.24-18.65.58-22.89-12-56.1-26.5-62.72-12.36,5.56-21.21,15-26.83,27.91-6.27,24.68,3.31,47.64,14.08,53.46"/><path class="cls-18" d="M173.29,173.79c-.14,3.5-4.32,6.2-9.32,6s-9-3.24-8.8-6.74,4.33-6.2,9.34-6,8.94,3.24,8.79,6.75"/><path class="cls-5" d="M145,157.54c.21,17.33-5.38,26.39-16.63,25.91-11.47-.47-16-10-14.32-27.19,1.54-15.33,6.82-24,16.54-23.61,10.21.43,14.24,9.49,14.4,24.89"/><path class="cls-5" d="M183.68,159.16c-1.65,17.24,3.18,26.75,14.43,27.21,11.45.48,16.81-8.6,16.51-25.91-.25-15.4-4.79-24.5-14.52-24.9-10.21-.43-15,8.28-16.43,23.6"/><polygon class="cls-19" points="149.45 237.74 179.31 237.18 178.74 223 149.48 223.28 149.45 237.74"/><path class="cls-19" d="M175.9,228s7.77-7.17,15.84-6,12.06,2.84,16.32-1.92c0,0,2.09,12-14.05,14.61-8.76,1.4-18.11-6.72-18.11-6.72"/><path class="cls-5" d="M155.55,232.68c-2.19-.15-2.42-2.94,1.15-4.79l1.6,3.58s-.54,1.35-2.75,1.21m-2.37,2.6c4.93,1.16,6.38-2.14,6.38-2.14l1.44,2.16,3-1.17-5.6-9.61c-9.78,1.33-8.9,9.89-5.23,10.76"/><path class="cls-5" d="M172.23,225l0,5.74c-1.17.81-3.38.9-4,0-.91-1.3.53-5.76.53-5.76l-3.6-.13c-2.29,4.34-1.15,9.47,2.58,9.6a10,10,0,0,0,4.51-1.12v1.34l2.84-.08,1-9.35-3.87-.26"/><path class="cls-20" d="M155.72,183.89s9.39,3.22,17,0c0,0,0,24.69-9.09,23.05-8.57-1.56-7.92-23.05-7.92-23.05"/><polyline class="cls-21" points="121.83 165.3 140.13 161.65 120.85 152.13"/><polyline class="cls-21" points="206.42 167.01 188.12 163.37 207.4 153.84"/><path class="cls-16" d="M193.22,244s15.62-8.81,24.45-12.76l-6.38-9.05c-14.9,7.37-28.76,13.24-28.76,13.24Z"/><path class="cls-22" d="M218.41,218.07c-2.45,1.53-4.81,2.91-7.12,4.13l6.38,9.05c3.52-2.17,5.73-3.61,5.73-3.61l-5-9.56"/><path class="cls-16" d="M137.08,244s-15.62-8.81-24.45-12.76L119,222.2c14.9,7.37,28.76,13.24,28.76,13.24Z"/><path class="cls-22" d="M111.88,218.07c2.45,1.53,4.81,2.91,7.12,4.13l-6.38,9.05c-3.52-2.17-5.73-3.61-5.73-3.61l5-9.56"/><ellipse class="cls-23" cx="162.78" cy="82.92" rx="114.79" ry="79.16"/><path class="cls-5" d="M266,100.34c-40.69-9.54-40.71-9.7-5.2-31.72-35.51,22-35.64,21.93-26.11-18.76-9.54,40.68-9.7,40.71-31.72,5.2,22,35.51,21.93,35.64-18.76,26.1,40.68,9.54,40.71,9.7,5.2,31.72C224.9,90.86,225,91,215.49,131.64c9.54-40.68,9.7-40.71,31.72-5.2C225.19,90.93,225.28,90.8,266,100.34Z"/></g></g></g></svg>