<svg xmlns="http://www.w3.org/2000/svg" viewBox="0 0 224.67 223"><defs><style>.cls-1{fill:#4b4b4b;}</style></defs><title>アセット 1</title><g id="レイヤー_2" data-name="レイヤー 2"><g id="_2" data-name="2"><path class="cls-1" d="M114,24.27c0,13.39-25.52,24.25-57,24.25S0,37.66,0,24.27,25.5,0,57,0,114,10.86,114,24.27Z"/><path class="cls-1" d="M0,65.33C0,78.73,25.5,89.59,57,89.59s57-10.86,57-24.27v-6a5.51,5.51,0,0,0-7.69-5.08s-17.83,11-49.3,11-49.3-11-49.3-11A5.5,5.5,0,0,0,0,59.31v6Z"/><path class="cls-1" d="M75.39,106.36a89.54,89.54,0,0,0-10.2,25.42c-2.7.17-5.42.25-8.22.25-31.45,0-57-10.87-57-24.28v-6a5.51,5.51,0,0,1,7.67-5.09s17.84,11,49.3,11A125.58,125.58,0,0,0,75.39,106.36Z"/><path class="cls-1" d="M65.25,174.2c-2.69.17-5.48.25-8.28.25-31.45,0-57-10.87-57-24.25v-6a5.49,5.49,0,0,1,7.67-5.08s17.84,11,49.3,11c2,0,3.92,0,5.81-.11-.06,1-.06,1.89-.06,2.84A90.28,90.28,0,0,0,65.25,174.2Z"/><path class="cls-1" d="M85.72,213.53A117.44,117.44,0,0,1,57,216.88c-31.45,0-57-10.86-57-24.25v-6a5.49,5.49,0,0,1,7.67-5.08s17.84,11,49.3,11a124,124,0,0,0,14.39-.81A91.26,91.26,0,0,0,85.72,213.53Z"/><path class="cls-1" d="M161,128.9H144.31v25.38H161c8,0,13.49-4.6,13.49-12.64S169,128.9,161,128.9Z"/><path class="cls-1" d="M154.5,82.66a70.17,70.17,0,1,0,70.17,70.17A70.18,70.18,0,0,0,154.5,82.66Zm7.16,82.12H144.31v30H132.75V118.51h28.91c14.88,0,24.42,9.85,24.42,23.13S176.54,164.77,161.66,164.77Z"/></g></g></svg>