<svg xmlns="http://www.w3.org/2000/svg" xmlns:xlink="http://www.w3.org/1999/xlink" viewBox="0 0 15 14.85"><defs><style>.cls-1{fill:url(#linear-gradient);}.cls-2{fill:#221f20;}</style><linearGradient id="linear-gradient" x1="0.73" y1="7.71" x2="15" y2="7.71" gradientUnits="userSpaceOnUse"><stop offset="0" stop-color="#de2726"/><stop offset="0.46" stop-color="#e04f51"/><stop offset="0.99" stop-color="#e38387"/></linearGradient></defs><title>アセット 3</title><g id="レイヤー_2" data-name="レイヤー 2"><g id="レイヤー_1-2" data-name="レイヤー 1"><path class="cls-1" d="M15,7.71a7.09,7.09,0,0,1-1,3.67l-.07.11A7.14,7.14,0,0,1,.73,7.71q0-.33,0-.65A7.14,7.14,0,0,1,15,7c0,.1,0,.2,0,.3S15,7.58,15,7.71Z"/><path class="cls-2" d="M2.13,2.13A7.28,7.28,0,0,1,5.28.28l.18,0A.14.14,0,0,1,5.53.5l-.18,0a7,7,0,1,0,6.87,11.68l.18-.19A7,7,0,0,0,7.17.28a.14.14,0,0,1,0-.28,7.27,7.27,0,0,1,5.45,12.22l-.19.2a7.25,7.25,0,0,1-3.48,1.94,7.27,7.27,0,0,1-6.8-1.94,7.27,7.27,0,0,1,0-10.29Z"/><path class="cls-2" d="M5.88.16,6,.12l.27,0a.14.14,0,0,1,0,.27L6,.39A.14.14,0,0,1,5.88.16Z"/><ellipse class="cls-2" cx="5.23" cy="5.38" rx="0.65" ry="0.98"/><ellipse class="cls-2" cx="9.47" cy="5.38" rx="0.65" ry="0.98"/><path class="cls-2" d="M3.88,11A3,3,0,0,1,5.79,8.32l.14-.06.21-.07a3.87,3.87,0,0,1,2.28,0l.23.08.14.06A3,3,0,0,1,10.67,11a.14.14,0,0,1-.28,0,2.73,2.73,0,0,0-2-2.5,3.5,3.5,0,0,0-.61-.14,3.64,3.64,0,0,0-1,0,3.51,3.51,0,0,0-.61.14,2.73,2.73,0,0,0-2,2.5.14.14,0,0,1-.28,0Z"/><path class="cls-2" d="M6.15,4.44H6.09L4.65,3.8a.14.14,0,1,1,.11-.25l1.44.62a.14.14,0,0,1-.05.27Z"/><path class="cls-2" d="M8.46,4.43a.14.14,0,0,1-.05-.27l1.44-.62A.14.14,0,0,1,10,3.8l-1.44.62Z"/></g></g></svg>