<svg xmlns="http://www.w3.org/2000/svg" xmlns:xlink="http://www.w3.org/1999/xlink" viewBox="0 0 15 14.85"><defs><style>.cls-1{fill:url(#linear-gradient);}.cls-2{fill:#221f20;}</style><linearGradient id="linear-gradient" x1="0.73" y1="7.71" x2="15" y2="7.71" gradientUnits="userSpaceOnUse"><stop offset="0" stop-color="#3eac4a"/><stop offset="0.54" stop-color="#68bc70"/><stop offset="0.99" stop-color="#8fca92"/></linearGradient></defs><title>アセット 2</title><g id="レイヤー_2" data-name="レイヤー 2"><g id="レイヤー_1-2" data-name="レイヤー 1"><path class="cls-1" d="M15,7.71a7.09,7.09,0,0,1-1,3.67l-.07.11A7.14,7.14,0,0,1,.73,7.71q0-.33,0-.65A7.14,7.14,0,0,1,15,7c0,.1,0,.2,0,.3S15,7.58,15,7.71Z"/><path class="cls-2" d="M7.27,14.55A7.28,7.28,0,0,1,.92,3.74L1,3.57a.14.14,0,1,1,.24.14l-.09.16a7,7,0,1,0,13.11,3.4c0-.08,0-.17,0-.26a7,7,0,0,0-12-4.61.14.14,0,0,1-.2-.19A7.27,7.27,0,0,1,14.54,7c0,.1,0,.19,0,.27a7.25,7.25,0,0,1-1.09,3.84,7.27,7.27,0,0,1-6.18,3.44Z"/><path class="cls-2" d="M1.4,3.37l-.08,0a.14.14,0,0,1,0-.19l.16-.22a.14.14,0,1,1,.22.17l-.15.21A.14.14,0,0,1,1.4,3.37Z"/><path class="cls-2" d="M7.25,12.06A3.26,3.26,0,0,1,4,8.81a.18.18,0,0,1,.37,0,2.89,2.89,0,1,0,5.77,0,.18.18,0,0,1,.37,0A3.26,3.26,0,0,1,7.25,12.06Z"/><ellipse class="cls-2" cx="4.88" cy="5.24" rx="0.64" ry="0.97"/><ellipse class="cls-2" cx="9.69" cy="5.24" rx="0.64" ry="0.97"/></g></g></svg>