<?xml version="1.0" encoding="utf-8"?>
<!-- Generator: Adobe Illustrator 21.1.0, SVG Export Plug-In . SVG Version: 6.00 Build 0)  -->
<svg version="1.1" id="レイヤー_1" xmlns="http://www.w3.org/2000/svg" xmlns:xlink="http://www.w3.org/1999/xlink" x="0px"
	 y="0px" viewBox="0 0 60 60" style="enable-background:new 0 0 60 60;" xml:space="preserve">
<style type="text/css">
	.st0{fill:#FFFFFF;}
</style>
<g id="object">
	<g id="XMLID_3_">
		<g>
			<path class="st0" d="M30,21.6c11.3,0,20,10.4,20,19.3c0,3.5-1.4,6.4-4,8.5c-3.4,2.7-8.9,4.2-16,4.2s-12.6-1.4-16-4.2
				c-2.7-2.1-4-5-4-8.5C10,31.9,18.7,21.6,30,21.6 M30,17.6c-24.3,0-38.8,40,0,40S54.3,17.6,30,17.6L30,17.6z"/>
		</g>
		<g>
			<path class="st0" d="M53.3,40c-1.8,0-3.4-1.2-3.9-3c-2-7.5-9.5-15.5-19.5-15.5s-17.5,8-19.5,15.5c-0.6,2.1-2.8,3.4-4.9,2.9
				c-2.1-0.6-3.4-2.7-2.9-4.9C5.5,24.6,16,13.6,30,13.6s24.5,11,27.2,21.4c0.6,2.1-0.7,4.3-2.9,4.9C54,40,53.7,40,53.3,40z"/>
		</g>
		<g>
			<path class="st0" d="M24,8c2.2,0,4,1.8,4,4s-1.8,4-4,4s-4-1.8-4-4S21.8,8,24,8 M24,4c-4.4,0-8,3.6-8,8s3.6,8,8,8s8-3.6,8-8
				S28.4,4,24,4L24,4z"/>
			<path class="st0" d="M36,8c2.2,0,4,1.8,4,4s-1.8,4-4,4s-4-1.8-4-4S33.8,8,36,8 M36,4c-4.4,0-8,3.6-8,8s3.6,8,8,8s8-3.6,8-8
				S40.4,4,36,4L36,4z"/>
		</g>
	</g>
</g>
</svg>
