<svg xmlns="http://www.w3.org/2000/svg" viewBox="0 0 356.1 356.1"><defs><style>.cls-1{fill:#fff;}.cls-2{fill:#d14618;}</style></defs><title>アセット 3</title><g id="レイヤー_2" data-name="レイヤー 2"><g id="レイヤー_1-2" data-name="レイヤー 1"><rect class="cls-1" x="8" y="8" width="340.1" height="340.1"/><path class="cls-2" d="M340.1,16V340.1H16V16H340.1m16-16H0V356.1H356.1V0Z"/><path class="cls-2" d="M77.75,82.59h28.52v188.1H77.75Z"/><path class="cls-2" d="M145.37,85.05a302.16,302.16,0,0,1,47.95-3.93c80.16,0,96.88,49.42,96.88,91.22v.25c0,34.18-10.57,59-27,75-17,16.47-43.77,24.83-77,24.83-16.72,0-30.24-.74-40.82-2.21Zm28.52,163.51a136.81,136.81,0,0,0,18.44,1c42.29.25,67.86-24.59,67.86-76.47,0-45.73-23.6-69.34-64.17-69.34a113.44,113.44,0,0,0-22.13,2Z"/></g></g></svg>