<svg xmlns="http://www.w3.org/2000/svg" viewBox="0 0 356.1 356.1"><defs><style>.cls-1{fill:#fff;}.cls-2{fill:#44b2a4;}</style></defs><title>アセット 2</title><g id="レイヤー_2" data-name="レイヤー 2"><g id="レイヤー_1-2" data-name="レイヤー 1"><rect class="cls-1" x="8" y="8" width="340.1" height="340.1" rx="28.85" ry="28.85"/><path class="cls-2" d="M319.25,16A20.87,20.87,0,0,1,340.1,36.85v282.4a20.87,20.87,0,0,1-20.85,20.85H36.85A20.87,20.87,0,0,1,16,319.25V36.85A20.87,20.87,0,0,1,36.85,16h282.4m0-16H36.85A37,37,0,0,0,0,36.85v282.4A37,37,0,0,0,36.85,356.1h282.4a37,37,0,0,0,36.85-36.85V36.85A37,37,0,0,0,319.25,0Z"/><path class="cls-2" d="M77.75,82.59h28.52v188.1H77.75Z"/><path class="cls-2" d="M145.37,85.05a302.16,302.16,0,0,1,47.95-3.93c80.16,0,96.88,49.42,96.88,91.22v.25c0,34.18-10.57,59-27,75-17,16.47-43.77,24.83-77,24.83-16.72,0-30.24-.74-40.82-2.21Zm28.52,163.51a136.81,136.81,0,0,0,18.44,1c42.29.25,67.86-24.59,67.86-76.47,0-45.73-23.6-69.34-64.17-69.34a113.44,113.44,0,0,0-22.13,2Z"/></g></g></svg>