<svg xmlns="http://www.w3.org/2000/svg" viewBox="0 0 306.79 110.7"><defs><style>.cls-1{fill:#eb5505;}</style></defs><title>アセット 2</title><g id="レイヤー_2" data-name="レイヤー 2"><g id="_2" data-name="2"><path class="cls-1" d="M290.32,36.86C255.72,90,240.68,97.69,235.19,96.49s-1.89-14.13-1.89-14.13l22-82.22c-32.65-1.36-40,29.24-40,29.24l-8.59,32.1c-6.44,22.19-25.42,35-38.3,35.08s-5.85-19.69-5.85-19.69L183.06.14C150-1.16,143.29,29,143.29,29L132.95,67.36c-3.58,14-22.79,30.27-29.11,29.19s-2-15.78-2-15.78L123.43.19s-56-3.29-85.73,17.14S1,72.2.12,81.78s2.57,23,18.29,27.15,37,2.14,54.29-18.15c0,0-.14,17.83,22.06,19.74,21.14,1.82,37.71-19.57,37.71-19.57s1.43,18,26.73,19.33,36.87-10.62,45.11-19.33c0,0,1.8,16.68,18.23,19.1s30.72-6.62,40.38-16.2,29.93-36,43.87-57ZM75.13,60.92c-1.43,5.72-7,17.15-14,24.15s-22,14.43-29.29,10.15.57-24.43,1.57-27.58,9.43-26.72,24.43-39.58S88,13.05,88,13.05,76.56,55.2,75.13,60.92Z"/></g></g></svg>