<svg xmlns="http://www.w3.org/2000/svg" xmlns:xlink="http://www.w3.org/1999/xlink" viewBox="0 0 15 14.85"><defs><style>.cls-1{fill:url(#linear-gradient);}.cls-2{fill:#221f20;}</style><linearGradient id="linear-gradient" x1="0.73" y1="7.71" x2="15" y2="7.71" gradientUnits="userSpaceOnUse"><stop offset="0" stop-color="#f4cc38"/><stop offset="0.42" stop-color="#f6d763"/><stop offset="0.99" stop-color="#f8e7a3"/></linearGradient></defs><title>アセット 1</title><g id="レイヤー_2" data-name="レイヤー 2"><g id="レイヤー_1-2" data-name="レイヤー 1"><path class="cls-1" d="M15,7.71a7.09,7.09,0,0,1-1,3.67l-.07.11A7.14,7.14,0,0,1,.73,7.71q0-.33,0-.65A7.14,7.14,0,0,1,15,7c0,.1,0,.2,0,.3S15,7.58,15,7.71Z"/><path class="cls-2" d="M7.27,0a7.28,7.28,0,0,1,3.54.92L11,1a.14.14,0,0,1-.14.24l-.16-.09a7,7,0,1,0-3.4,13.11h.26a7,7,0,0,0,4.61-12,.14.14,0,1,1,.19-.2A7.27,7.27,0,0,1,7.55,14.54H7.27a7.25,7.25,0,0,1-3.84-1.09A7.27,7.27,0,0,1,0,7.27,7.27,7.27,0,0,1,7.27,0Z"/><path class="cls-2" d="M11.32,1.26l.08,0,.22.16a.14.14,0,0,1-.17.22l-.21-.15a.14.14,0,0,1,.08-.25Z"/><ellipse class="cls-2" cx="4.96" cy="5.38" rx="0.65" ry="0.98"/><ellipse class="cls-2" cx="9.65" cy="5.38" rx="0.65" ry="0.98"/><rect class="cls-2" x="4.49" y="10.03" width="5.81" height="0.48" rx="0.24" ry="0.24"/></g></g></svg>