<svg xmlns="http://www.w3.org/2000/svg" viewBox="0 0 730.11 393.44"><defs><style>.cls-1{fill:#686868;}</style></defs><title>アセット 1</title><g id="レイヤー_2" data-name="レイヤー 2"><g id="レイヤー_1-2" data-name="レイヤー 1"><path class="cls-1" d="M0,104.32V.15H11.12V94.37H64.38v9.95Z"/><path class="cls-1" d="M128.17,97a28.3,28.3,0,0,1-20.63,8.19A28.3,28.3,0,0,1,86.91,97c-7.32-7.46-8.78-17.56-8.78-28.68s1.46-21.22,8.78-28.68a28.3,28.3,0,0,1,20.63-8.19,28.3,28.3,0,0,1,20.63,8.19c7.32,7.46,8.78,17.56,8.78,28.68S135.49,89.55,128.17,97Zm-7.46-50.92a18.46,18.46,0,0,0-13.17-5.27,18.11,18.11,0,0,0-13,5.27c-5.27,5.27-5.85,14.19-5.85,22.24s.59,17,5.85,22.24a18.11,18.11,0,0,0,13,5.27,18.46,18.46,0,0,0,13.17-5.27c5.27-5.27,5.71-14.19,5.71-22.24S126,51.36,120.71,46.09Z"/><path class="cls-1" d="M182.6,137.39c-10.83,0-16.83-2.78-24.44-9.66L165,121c5.27,4.68,8.93,7.17,17.27,7.17,13.9,0,19.75-9.8,19.75-22.09V94.81c-5.85,7.46-12.44,9.36-20.19,9.36-7.32,0-13.61-2.63-17.41-6.44-7.17-7.17-8.78-18.29-8.78-30s1.61-22.83,8.78-30c3.8-3.8,10.24-6.29,17.56-6.29,7.9,0,14.34,1.76,20.19,9.36V32.34H212.6v74.18C212.6,124.37,201.48,137.39,182.6,137.39Zm1.61-96.57c-15.66,0-18,13.46-18,26.92s2.34,26.92,18,26.92,17.85-13.46,17.85-26.92S199.87,40.82,184.21,40.82Z"/><path class="cls-1" d="M285.17,97a30.07,30.07,0,0,1-41.26,0c-7.32-7.46-8.78-17.56-8.78-28.68s1.46-21.22,8.78-28.68a30.07,30.07,0,0,1,41.26,0c7.32,7.46,8.78,17.56,8.78,28.68S292.48,89.55,285.17,97Zm-7.46-50.92a18.46,18.46,0,0,0-13.17-5.27,18.11,18.11,0,0,0-13,5.27c-5.27,5.27-5.85,14.19-5.85,22.24s.59,17,5.85,22.24a18.11,18.11,0,0,0,13,5.27,18.46,18.46,0,0,0,13.17-5.27c5.27-5.27,5.71-14.19,5.71-22.24S283,51.36,277.71,46.09Z"/><path class="cls-1" d="M352.32,11.85V0h11.85V11.85Zm.59,92.47v-72h10.53v72Z"/><path class="cls-1" d="M482.4,104.32V60c0-12.73-6.88-19.17-17.7-19.17-10.54,0-18,6.58-18,18v45.5H436.16V60c0-12.73-6.88-19.17-17.7-19.17s-18,6.58-18,19.17v44.33H389.93v-72h10.53v7.9c5.12-5.85,12.29-8.78,20.34-8.78,10,0,17.7,4.1,22.09,12,5.56-7.9,13.61-12,23.7-12,7.75,0,14.19,2.49,18.58,6.73,5.12,5,7.75,11.71,7.75,20v46.09Z"/><path class="cls-1" d="M559.36,104.32V97.45c-5.85,5.85-11.12,7.75-20.78,7.75-9.95,0-15.8-1.9-20.34-6.58-3.51-3.51-5.41-8.93-5.41-14.63,0-12.58,8.78-20.78,24.87-20.78h21.66V56.33c0-10.53-5.27-15.8-18.44-15.8-9.22,0-13.9,2.19-18.14,8.19l-7.17-6.58c6.44-8.34,13.75-10.68,25.46-10.68,19.31,0,28.82,8.34,28.82,24v48.87Zm0-33.21H539.17c-10.83,0-16.09,4.39-16.09,12.73s5.12,12.29,16.53,12.29c6.15,0,11.56-.44,16.09-4.83,2.49-2.34,3.66-6.44,3.66-12.44Z"/><path class="cls-1" d="M618.61,137.39c-10.83,0-16.83-2.78-24.43-9.66l6.88-6.73c5.27,4.68,8.93,7.17,17.27,7.17,13.9,0,19.75-9.8,19.75-22.09V94.81c-5.85,7.46-12.44,9.36-20.19,9.36-7.32,0-13.61-2.63-17.41-6.44-7.17-7.17-8.78-18.29-8.78-30s1.61-22.83,8.78-30c3.8-3.8,10.24-6.29,17.56-6.29,7.9,0,14.34,1.76,20.19,9.36V32.34h10.39v74.18C648.61,124.37,637.49,137.39,618.61,137.39Zm1.61-96.57c-15.66,0-18,13.46-18,26.92s2.34,26.92,18,26.92,17.85-13.46,17.85-26.92S635.88,40.82,620.22,40.82Z"/><path class="cls-1" d="M681.53,71.11C681.53,86.91,689,96,702.75,96c8.34,0,13.17-2.49,18.88-8.19l7.17,6.29c-7.32,7.32-14,11.12-26.34,11.12-19,0-31.46-11.41-31.46-36.87,0-23.26,11.27-36.87,29.56-36.87,18.58,0,29.56,13.46,29.56,34.82v4.83Zm35.85-19.9a18.49,18.49,0,0,0-33.65,0c-1.61,4-1.9,6.15-2.19,12h38C719.28,57.36,719,55.16,717.38,51.21Z"/><path class="cls-1" d="M0,360.38V256.2H11.12v94.23H64.38v9.95Z"/><path class="cls-1" d="M128.17,353.06a28.3,28.3,0,0,1-20.63,8.19,28.3,28.3,0,0,1-20.63-8.19c-7.32-7.46-8.78-17.56-8.78-28.68s1.46-21.22,8.78-28.68a28.3,28.3,0,0,1,20.63-8.19,28.3,28.3,0,0,1,20.63,8.19c7.32,7.46,8.78,17.56,8.78,28.68S135.49,345.6,128.17,353.06Zm-7.46-50.92a18.45,18.45,0,0,0-13.17-5.27,18.11,18.11,0,0,0-13,5.27c-5.27,5.27-5.85,14.19-5.85,22.24s.59,17,5.85,22.24a18.11,18.11,0,0,0,13,5.27,18.46,18.46,0,0,0,13.17-5.27c5.27-5.27,5.71-14.19,5.71-22.24S126,307.41,120.71,302.14Z"/><path class="cls-1" d="M182.6,393.44c-10.83,0-16.83-2.78-24.44-9.66l6.88-6.73c5.27,4.68,8.93,7.17,17.27,7.17,13.9,0,19.75-9.8,19.75-22.09V350.86c-5.85,7.46-12.44,9.36-20.19,9.36-7.32,0-13.61-2.63-17.41-6.44-7.17-7.17-8.78-18.29-8.78-30s1.61-22.83,8.78-30c3.8-3.8,10.24-6.29,17.56-6.29,7.9,0,14.34,1.76,20.19,9.36v-8.49H212.6v74.18C212.6,380.42,201.48,393.44,182.6,393.44Zm1.61-96.57c-15.66,0-18,13.46-18,26.92s2.34,26.92,18,26.92,17.85-13.46,17.85-26.92S199.87,296.87,184.21,296.87Z"/><path class="cls-1" d="M285.17,353.06a30.07,30.07,0,0,1-41.26,0c-7.32-7.46-8.78-17.56-8.78-28.68s1.46-21.22,8.78-28.68a30.07,30.07,0,0,1,41.26,0c7.32,7.46,8.78,17.56,8.78,28.68S292.48,345.6,285.17,353.06Zm-7.46-50.92a18.45,18.45,0,0,0-13.17-5.27,18.11,18.11,0,0,0-13,5.27c-5.27,5.27-5.85,14.19-5.85,22.24s.59,17,5.85,22.24a18.11,18.11,0,0,0,13,5.27,18.46,18.46,0,0,0,13.17-5.27c5.27-5.27,5.71-14.19,5.71-22.24S283,307.41,277.71,302.14Z"/><path class="cls-1" d="M352.32,267.9V256.05h11.85V267.9Zm.59,92.47v-72h10.53v72Z"/><path class="cls-1" d="M482.4,360.38V316c0-12.73-6.88-19.17-17.7-19.17-10.54,0-18,6.58-18,18v45.5H436.16V316c0-12.73-6.88-19.17-17.7-19.17s-18,6.58-18,19.17v44.33H389.93v-72h10.53v7.9c5.12-5.85,12.29-8.78,20.34-8.78,10,0,17.7,4.1,22.09,12,5.56-7.9,13.61-12,23.7-12,7.75,0,14.19,2.49,18.58,6.73,5.12,5,7.75,11.71,7.75,20v46.09Z"/><path class="cls-1" d="M559.36,360.38V353.5c-5.85,5.85-11.12,7.75-20.78,7.75-9.95,0-15.8-1.9-20.34-6.58-3.51-3.51-5.41-8.93-5.41-14.63,0-12.58,8.78-20.78,24.87-20.78h21.66v-6.88c0-10.53-5.27-15.8-18.44-15.8-9.22,0-13.9,2.19-18.14,8.19l-7.17-6.58c6.44-8.34,13.75-10.68,25.46-10.68,19.31,0,28.82,8.34,28.82,24v48.87Zm0-33.21H539.17c-10.83,0-16.09,4.39-16.09,12.73s5.12,12.29,16.53,12.29c6.15,0,11.56-.44,16.09-4.83,2.49-2.34,3.66-6.44,3.66-12.44Z"/><path class="cls-1" d="M618.61,393.44c-10.83,0-16.83-2.78-24.43-9.66l6.88-6.73c5.27,4.68,8.93,7.17,17.27,7.17,13.9,0,19.75-9.8,19.75-22.09V350.86c-5.85,7.46-12.44,9.36-20.19,9.36-7.32,0-13.61-2.63-17.41-6.44-7.17-7.17-8.78-18.29-8.78-30s1.61-22.83,8.78-30c3.8-3.8,10.24-6.29,17.56-6.29,7.9,0,14.34,1.76,20.19,9.36v-8.49h10.39v74.18C648.61,380.42,637.49,393.44,618.61,393.44Zm1.61-96.57c-15.66,0-18,13.46-18,26.92s2.34,26.92,18,26.92,17.85-13.46,17.85-26.92S635.88,296.87,620.22,296.87Z"/><path class="cls-1" d="M681.53,327.16C681.53,343,689,352,702.75,352c8.34,0,13.17-2.49,18.88-8.19l7.17,6.29c-7.32,7.32-14,11.12-26.34,11.12-19,0-31.46-11.41-31.46-36.87,0-23.26,11.27-36.87,29.56-36.87,18.58,0,29.56,13.46,29.56,34.82v4.83Zm35.85-19.9a18.49,18.49,0,0,0-33.65,0c-1.61,4-1.9,6.15-2.19,12h38C719.28,313.41,719,311.21,717.38,307.26Z"/></g></g></svg>